<?xml version="1.0" encoding="UTF-8"?> <!-- Generator: Adobe Illustrator 25.0.0, SVG Export Plug-In . SVG Version: 6.00 Build 0) --> <svg xmlns="http://www.w3.org/2000/svg" xmlns:xlink="http://www.w3.org/1999/xlink" version="1.1" id="Layer_1" x="0px" y="0px" viewBox="0 0 820.9 343.8" style="enable-background:new 0 0 820.9 343.8;" xml:space="preserve"> <style type="text/css"> .st0{fill:#333333;} .st1{fill:url(#SVGID_1_);} .st2{enable-background:new ;} .st3{fill:#444445;} .st4{fill:#B1E1F5;} .st5{fill:#DEF2FC;} .st6{fill:#7ECDEE;} .st7{fill:#776FB2;} .st8{fill:#69469B;} .st9{fill:#412C6B;} .st10{fill:#0E9FC5;} .st11{fill:#2D7FC1;} .st12{fill:#0857A3;} .st13{fill:#606161;} .st14{fill:#575757;} .st15{fill:#3F4040;} .st16{fill:#FFDA6E;} .st17{fill:#FFC418;} .st18{fill:#E3AB24;} .st19{fill:#F38BA1;} .st20{fill:#EE4064;} .st21{fill:#D82E57;} .st22{fill:#81CEC8;} .st23{fill:#4ABFB2;} .st24{fill:#3A9B8C;} </style> <g id="Layer_2_1_"> </g> <path class="st0" d="M420.7,229.4L371,90.3h30.5l35.2,102.9l31-93.8c1.8-5.5,6.9-9.2,12.7-9.2h20.1l-49.8,139.1L420.7,229.4 L420.7,229.4z"></path> <path class="st0" d="M531.8,103.7c0-7.4,6-13.3,13.3-13.3h42.2c11,0,19.2,0.5,24.6,1.4c5.4,0.9,10.2,2.8,14.5,5.7 c4.3,2.9,7.8,6.8,10.7,11.6c2.8,4.8,4.3,10.3,4.3,16.3c0,6.5-1.8,12.5-5.3,17.9s-8.3,9.5-14.3,12.2c8.5,2.5,15,6.7,19.5,12.6 c4.6,5.9,6.8,12.9,6.8,21c0,6.3-1.5,12.5-4.4,18.5s-7,10.8-12,14.3c-5.1,3.6-11.4,5.8-18.8,6.6c-4.7,0.5-16,0.8-33.9,0.9h-47.3 V103.7H531.8z M559.9,113.5v32.2h18.4c10.9,0,17.7-0.2,20.4-0.5c4.8-0.6,8.6-2.2,11.3-5c2.8-2.8,4.1-6.4,4.1-10.9 c0-4.3-1.2-7.8-3.6-10.5c-2.4-2.7-5.9-4.3-10.6-4.9c-2.8-0.3-10.8-0.5-24-0.5L559.9,113.5L559.9,113.5z M559.9,168.8V206h26 c10.1,0,16.5-0.3,19.3-0.9c4.2-0.8,7.6-2.6,10.2-5.6c2.6-2.9,3.9-6.9,3.9-11.8c0-4.2-1-7.7-3-10.6c-2-2.9-4.9-5-8.8-6.4 c-3.8-1.3-12.1-2-24.9-2h-22.7V168.8z"></path> <linearGradient id="SVGID_1_" gradientUnits="userSpaceOnUse" x1="732.5419" y1="268.5884" x2="731.9576" y2="137.7065" gradientTransform="matrix(1 0 0 -1 0 343)"> <stop offset="0" style="stop-color:#27A8E0"></stop> <stop offset="0.2091" style="stop-color:#25A3DD"></stop> <stop offset="0.4398" style="stop-color:#2096D3"></stop> <stop offset="0.6808" style="stop-color:#1880C2"></stop> <stop offset="0.9273" style="stop-color:#0C62AB"></stop> <stop offset="1" style="stop-color:#0857A3"></stop> <stop offset="1" style="stop-color:#1678BA"></stop> </linearGradient> <path class="st1" d="M667.2,229.4l47.5-72.6l-43.1-66.5h32.8l27.9,44.7l23.4-38.3c2.4-4,6.7-6.4,11.4-6.4h25.1L749,157.9l47.5,71.5 h-33.9l-30.8-48.1l-30.9,48.1H667.2z"></path> <g class="st2"> <path class="st3" d="M384.5,274.3l-1.7-4.8h-6.6l-1.7,4.8h-3l6.5-17.3h3.1l6.5,17.3H384.5z M382,267l-1.6-4.7 c-0.1-0.3-0.3-0.8-0.5-1.5s-0.4-1.2-0.4-1.5c-0.2,1-0.5,2-0.9,3.2L377,267H382z"></path> <path class="st3" d="M406.8,265.5c0,2.8-0.8,5-2.4,6.5s-3.9,2.3-6.8,2.3h-4.8V257h5.3c2.7,0,4.9,0.7,6.4,2.2 S406.8,262.8,406.8,265.5z M403.8,265.6c0-4.1-1.9-6.2-5.8-6.2h-2.4v12.5h2C401.7,271.9,403.8,269.8,403.8,265.6z"></path> <path class="st3" d="M423.3,257h2.9l-6,17.3h-3l-6-17.3h2.9l3.6,10.7c0.2,0.5,0.4,1.2,0.6,2c0.2,0.8,0.3,1.4,0.4,1.8 c0.1-0.6,0.3-1.3,0.5-2.1c0.2-0.8,0.4-1.4,0.5-1.7L423.3,257z"></path> <path class="st3" d="M442.2,274.3l-1.7-4.8h-6.6l-1.7,4.8h-3l6.5-17.3h3.1l6.5,17.3H442.2z M439.8,267l-1.6-4.7 c-0.1-0.3-0.3-0.8-0.5-1.5c-0.2-0.7-0.4-1.2-0.4-1.5c-0.2,1-0.5,2-0.9,3.2l-1.6,4.5H439.8z"></path> <path class="st3" d="M464.9,274.3h-3.5l-8.5-13.8h-0.1l0.1,0.8c0.1,1.5,0.2,2.8,0.2,4v9h-2.6V257h3.4l8.5,13.7h0.1 c0-0.2,0-0.8-0.1-2c0-1.1-0.1-2-0.1-2.7v-9h2.6V274.3z"></path> <path class="st3" d="M479.8,259.2c-1.6,0-2.9,0.6-3.8,1.7c-0.9,1.1-1.4,2.7-1.4,4.8c0,2.1,0.4,3.7,1.3,4.8c0.9,1.1,2.2,1.6,3.9,1.6 c0.7,0,1.4-0.1,2.1-0.2c0.7-0.1,1.4-0.3,2.1-0.6v2.4c-1.4,0.5-2.9,0.8-4.6,0.8c-2.5,0-4.5-0.8-5.8-2.3c-1.4-1.5-2-3.7-2-6.6 c0-1.8,0.3-3.4,1-4.7c0.7-1.3,1.6-2.4,2.9-3.1c1.2-0.7,2.7-1.1,4.4-1.1c1.8,0,3.4,0.4,4.9,1.1l-1,2.3c-0.6-0.3-1.2-0.5-1.8-0.7 C481.2,259.3,480.5,259.2,479.8,259.2z"></path> <path class="st3" d="M500.5,274.3h-9.8V257h9.8v2.4h-6.9v4.7h6.5v2.4h-6.5v5.4h6.9V274.3z"></path> <path class="st3" d="M521.3,265.5c0,2.8-0.8,5-2.4,6.5s-3.9,2.3-6.8,2.3h-4.8V257h5.3c2.7,0,4.9,0.7,6.4,2.2 C520.5,260.7,521.3,262.8,521.3,265.5z M518.3,265.6c0-4.1-1.9-6.2-5.8-6.2h-2.4v12.5h2C516.3,271.9,518.3,269.8,518.3,265.6z"></path> <path class="st3" d="M553.9,259.2c-1.6,0-2.9,0.6-3.8,1.7c-0.9,1.1-1.4,2.7-1.4,4.8c0,2.1,0.4,3.7,1.3,4.8c0.9,1.1,2.2,1.6,3.9,1.6 c0.7,0,1.4-0.1,2.1-0.2c0.7-0.1,1.4-0.3,2.1-0.6v2.4c-1.4,0.5-2.9,0.8-4.6,0.8c-2.5,0-4.5-0.8-5.8-2.3c-1.4-1.5-2-3.7-2-6.6 c0-1.8,0.3-3.4,1-4.7c0.7-1.3,1.6-2.4,2.9-3.1c1.2-0.7,2.7-1.1,4.4-1.1c1.8,0,3.4,0.4,4.9,1.1l-1,2.3c-0.6-0.3-1.2-0.5-1.8-0.7 C555.3,259.3,554.6,259.2,553.9,259.2z"></path> <path class="st3" d="M578.4,257v11.2c0,1.3-0.3,2.4-0.8,3.3c-0.5,1-1.3,1.7-2.4,2.2s-2.3,0.8-3.7,0.8c-2.1,0-3.8-0.6-5-1.7 s-1.8-2.7-1.8-4.7V257h2.8v10.9c0,1.4,0.3,2.5,1,3.2s1.7,1,3,1c2.7,0,4-1.4,4-4.2V257H578.4z"></path> <path class="st3" d="M595.8,269.6c0,1.5-0.6,2.7-1.7,3.6c-1.1,0.9-2.6,1.3-4.6,1.3s-3.5-0.3-4.8-0.9v-2.7c0.8,0.4,1.6,0.7,2.5,0.9 c0.9,0.2,1.7,0.3,2.5,0.3c1.1,0,1.9-0.2,2.5-0.6s0.8-1,0.8-1.7c0-0.6-0.2-1.2-0.7-1.6c-0.5-0.4-1.5-1-3-1.6 c-1.6-0.6-2.7-1.4-3.3-2.2c-0.6-0.8-1-1.8-1-3c0-1.4,0.5-2.6,1.5-3.4c1-0.8,2.4-1.2,4.1-1.2c1.7,0,3.3,0.4,4.9,1.1l-0.9,2.3 c-1.5-0.6-2.9-1-4.1-1c-0.9,0-1.6,0.2-2.1,0.6c-0.5,0.4-0.7,0.9-0.7,1.6c0,0.4,0.1,0.8,0.3,1.2c0.2,0.3,0.5,0.6,0.9,0.9 c0.4,0.3,1.2,0.7,2.3,1.1c1.3,0.5,2.2,1,2.8,1.5c0.6,0.5,1,1,1.3,1.5C595.7,268.1,595.8,268.8,595.8,269.6z"></path> <path class="st3" d="M608.1,274.3h-2.8v-14.8h-5.1V257h13v2.4h-5.1V274.3z"></path> <path class="st3" d="M634.1,265.6c0,2.8-0.7,5-2.1,6.6c-1.4,1.6-3.4,2.3-6,2.3c-2.6,0-4.6-0.8-6-2.3c-1.4-1.5-2.1-3.7-2.1-6.6 c0-2.8,0.7-5,2.1-6.6c1.4-1.5,3.4-2.3,6-2.3c2.6,0,4.5,0.8,6,2.3C633.4,260.6,634.1,262.8,634.1,265.6z M621,265.6 c0,2.1,0.4,3.7,1.3,4.8s2.1,1.6,3.8,1.6c1.7,0,2.9-0.5,3.8-1.6c0.9-1.1,1.3-2.7,1.3-4.9c0-2.1-0.4-3.7-1.3-4.8 c-0.8-1.1-2.1-1.6-3.8-1.6c-1.7,0-3,0.5-3.8,1.6C621.4,261.9,621,263.5,621,265.6z"></path> <path class="st3" d="M648.3,274.3l-5-14.4h-0.1c0.1,2.1,0.2,4.1,0.2,6v8.4h-2.6V257h4l4.8,13.7h0.1l4.9-13.7h4v17.3h-2.7v-8.5 c0-0.9,0-2,0.1-3.4c0-1.4,0.1-2.2,0.1-2.5H656l-5.2,14.4H648.3z"></path> <path class="st3" d="M694.5,257h2.9l-6,17.3h-3l-6-17.3h2.9l3.6,10.7c0.2,0.5,0.4,1.2,0.6,2c0.2,0.8,0.3,1.4,0.4,1.8 c0.1-0.6,0.3-1.3,0.5-2.1c0.2-0.8,0.4-1.4,0.5-1.7L694.5,257z"></path> <path class="st3" d="M702.7,274.3V257h2.8v17.3H702.7z"></path> <path class="st3" d="M723.1,269.6c0,1.5-0.6,2.7-1.7,3.6c-1.1,0.9-2.6,1.3-4.6,1.3s-3.5-0.3-4.8-0.9v-2.7c0.8,0.4,1.6,0.7,2.5,0.9 c0.9,0.2,1.7,0.3,2.5,0.3c1.1,0,1.9-0.2,2.5-0.6s0.8-1,0.8-1.7c0-0.6-0.2-1.2-0.7-1.6c-0.5-0.4-1.5-1-3-1.6 c-1.6-0.6-2.7-1.4-3.3-2.2c-0.6-0.8-1-1.8-1-3c0-1.4,0.5-2.6,1.5-3.4c1-0.8,2.4-1.2,4.1-1.2c1.7,0,3.3,0.4,4.9,1.1l-0.9,2.3 c-1.5-0.6-2.9-1-4.1-1c-0.9,0-1.6,0.2-2.1,0.6c-0.5,0.4-0.7,0.9-0.7,1.6c0,0.4,0.1,0.8,0.3,1.2c0.2,0.3,0.5,0.6,0.9,0.9 c0.4,0.3,1.2,0.7,2.3,1.1c1.3,0.5,2.2,1,2.8,1.5c0.6,0.5,1,1,1.3,1.5C722.9,268.1,723.1,268.8,723.1,269.6z"></path> <path class="st3" d="M742.9,257v11.2c0,1.3-0.3,2.4-0.8,3.3c-0.5,1-1.3,1.7-2.4,2.2s-2.3,0.8-3.7,0.8c-2.1,0-3.8-0.6-5-1.7 s-1.8-2.7-1.8-4.7V257h2.8v10.9c0,1.4,0.3,2.5,1,3.2s1.7,1,3,1c2.7,0,4-1.4,4-4.2V257H742.9z"></path> <path class="st3" d="M761.1,274.3l-1.7-4.8h-6.6l-1.7,4.8h-3l6.5-17.3h3.1l6.5,17.3H761.1z M758.6,267l-1.6-4.7 c-0.1-0.3-0.3-0.8-0.5-1.5c-0.2-0.7-0.4-1.2-0.4-1.5c-0.2,1-0.5,2-0.9,3.2l-1.6,4.5H758.6z"></path> <path class="st3" d="M769.3,274.3V257h2.8v14.8h7.3v2.4H769.3z"></path> <path class="st3" d="M795.4,269.6c0,1.5-0.6,2.7-1.7,3.6c-1.1,0.9-2.6,1.3-4.6,1.3s-3.5-0.3-4.8-0.9v-2.7c0.8,0.4,1.6,0.7,2.5,0.9 c0.9,0.2,1.7,0.3,2.5,0.3c1.1,0,1.9-0.2,2.5-0.6s0.8-1,0.8-1.7c0-0.6-0.2-1.2-0.7-1.6c-0.5-0.4-1.5-1-3-1.6 c-1.6-0.6-2.7-1.4-3.3-2.2c-0.6-0.8-1-1.8-1-3c0-1.4,0.5-2.6,1.5-3.4c1-0.8,2.4-1.2,4.1-1.2c1.7,0,3.3,0.4,4.9,1.1l-0.9,2.3 c-1.5-0.6-2.9-1-4.1-1c-0.9,0-1.6,0.2-2.1,0.6c-0.5,0.4-0.7,0.9-0.7,1.6c0,0.4,0.1,0.8,0.3,1.2c0.2,0.3,0.5,0.6,0.9,0.9 c0.4,0.3,1.2,0.7,2.3,1.1c1.3,0.5,2.2,1,2.8,1.5c0.6,0.5,1,1,1.3,1.5C795.3,268.1,795.4,268.8,795.4,269.6z"></path> </g> <g> <path class="st4" d="M301.5,112.2V231c0,7.6-2.5,14.8-7.1,20.7c-2.4-3.1-5.4-5.9-8.8-8l-111.7-69.8c-6-3.8-13-5.5-19.8-5.1V8.6 c1.1-0.1,2.1-0.1,3.2,0c5.7,0.2,11.5,1.9,16.6,5.1l38,23.8l73.7,46.1C295.5,89.7,301.5,100.6,301.5,112.2z"></path> <path class="st5" d="M154.1,8.6v160.1c-5.4,0.3-10.8,2-15.6,4.9l-113.9,70c-3.5,2.1-6.5,4.8-8.9,8c-4.6-5.9-7.2-13.1-7.2-20.8 V112.4c0-11.7,6.1-22.6,16.1-28.8l113.9-70C143.3,10.6,148.7,8.9,154.1,8.6z"></path> <path class="st6" d="M294.5,251.7c-2.5,3.3-5.6,6-9.2,8.3l-16.8,10.2L245.9,284l-22.6,13.7l-9.1,5.5l-13.5,8.2L178,325.1l-4.5,2.7 c-5.5,3.4-11.8,5-18.1,4.8c-5.7-0.1-11.4-1.7-16.5-4.7l-6.1-3.7l-90.4-54L25,259.9c-3.7-2.2-6.8-5-9.3-8.2c2.4-3.1,5.4-5.8,8.9-8 l113.9-70c4.8-3,10.1-4.6,15.6-4.9c6.8-0.4,13.8,1.3,19.8,5l111.7,69.8C289.1,245.8,292,248.5,294.5,251.7z"></path> <polygon class="st7" points="87.6,116.6 87.6,297.3 42.4,270.3 42.4,116.6 65,101.7 "></polygon> <polygon class="st8" points="65,131.7 65,283.8 42.4,270.3 42.4,116.6 "></polygon> <polygon class="st9" points="87.6,116.6 87.6,297.3 65,283.8 65,131.7 "></polygon> <polygon class="st10" points="268.4,116.6 268.4,270.1 245.8,283.9 223.2,297.6 223.2,116.6 245.8,101.7 "></polygon> <polygon class="st11" points="245.8,131.7 245.8,283.9 223.2,297.6 223.2,116.6 "></polygon> <polygon class="st12" points="268.4,116.6 268.4,270.1 245.8,283.9 245.8,131.7 "></polygon> <g> <path class="st13" d="M204.2,118.1v175.7l-9.7,5.9c-12,7.3-25.6,10.8-39.1,10.5c-12.4-0.2-24.6-3.6-35.6-10.2l-13.2-7.9v-174 L155.4,86L204.2,118.1z"></path> <path class="st14" d="M155.4,150.6v159.5c-12.4-0.2-24.6-3.6-35.6-10.2l-13.2-7.9V118L155.4,150.6z"></path> <path class="st15" d="M204.2,118.1v175.7l-9.7,5.9c-12,7.3-25.6,10.8-39.1,10.5V150.6L204.2,118.1z"></path> </g> <polygon class="st16" points="132.8,186.2 132.8,324.3 87.6,297.3 87.6,186.2 110.2,171.3 "></polygon> <polygon class="st17" points="110.2,201.2 110.2,310.8 87.6,297.3 87.6,186.2 "></polygon> <polygon class="st18" points="132.8,186.2 132.8,324.3 110.2,310.8 110.2,201.2 "></polygon> <polygon class="st19" points="223.2,186.2 223.2,297.6 200.6,311.4 178,325.1 178,186.2 200.6,171.3 "></polygon> <polygon class="st20" points="200.6,201.2 200.6,311.4 178,325.1 178,186.2 "></polygon> <polygon class="st21" points="223.2,186.2 223.2,297.6 200.6,311.4 200.6,201.2 "></polygon> <path class="st22" d="M178,243.7v81.4l-4.5,2.7c-5.6,3.4-11.9,5-18.1,4.8c-5.7-0.1-11.4-1.7-16.5-4.7l-6.1-3.6v-80.6l22.6-14.9 L178,243.7z"></path> <path class="st23" d="M155.4,258.8v73.9c-5.7-0.1-11.4-1.7-16.5-4.7l-6.1-3.6v-80.6L155.4,258.8z"></path> <path class="st24" d="M178,243.7v81.4l-4.5,2.7c-5.6,3.4-11.9,5-18.1,4.8v-73.9L178,243.7z"></path> </g> <g> <path class="st4" d="M301.5,112.2V231c0,7.6-2.5,14.8-7.1,20.7c-2.4-3.1-5.4-5.9-8.8-8l-111.7-69.8c-6-3.8-13-5.5-19.8-5.1V8.6 c1.1-0.1,2.1-0.1,3.2,0c5.7,0.2,11.5,1.9,16.6,5.1l38,23.8l73.7,46.1C295.5,89.7,301.5,100.6,301.5,112.2z"></path> <path class="st5" d="M154.1,8.6v160.1c-5.4,0.3-10.8,2-15.6,4.9l-113.9,70c-3.5,2.1-6.5,4.8-8.9,8c-4.6-5.9-7.2-13.1-7.2-20.8 V112.4c0-11.7,6.1-22.6,16.1-28.8l113.9-70C143.3,10.6,148.7,8.9,154.1,8.6z"></path> <path class="st6" d="M294.5,251.7c-2.5,3.3-5.6,6-9.2,8.3l-16.8,10.2L245.9,284l-22.6,13.7l-9.1,5.5l-13.5,8.2L178,325.1l-4.5,2.7 c-5.5,3.4-11.8,5-18.1,4.8c-5.7-0.1-11.4-1.7-16.5-4.7l-6.1-3.7l-90.4-54L25,259.9c-3.7-2.2-6.8-5-9.3-8.2c2.4-3.1,5.4-5.8,8.9-8 l113.9-70c4.8-3,10.1-4.6,15.6-4.9c6.8-0.4,13.8,1.3,19.8,5l111.7,69.8C289.1,245.8,292,248.5,294.5,251.7z"></path> <polygon class="st7" points="87.6,116.6 87.6,297.3 42.4,270.3 42.4,116.6 65,101.7 "></polygon> <polygon class="st8" points="65,131.7 65,283.8 42.4,270.3 42.4,116.6 "></polygon> <polygon class="st9" points="87.6,116.6 87.6,297.3 65,283.8 65,131.7 "></polygon> <polygon class="st10" points="268.4,116.6 268.4,270.1 245.8,283.9 223.2,297.6 223.2,116.6 245.8,101.7 "></polygon> <polygon class="st11" points="245.8,131.7 245.8,283.9 223.2,297.6 223.2,116.6 "></polygon> <polygon class="st12" points="268.4,116.6 268.4,270.1 245.8,283.9 245.8,131.7 "></polygon> <g> <path class="st13" d="M204.2,118.1v175.7l-9.7,5.9c-12,7.3-25.6,10.8-39.1,10.5c-12.4-0.2-24.6-3.6-35.6-10.2l-13.2-7.9v-174 L155.4,86L204.2,118.1z"></path> <path class="st14" d="M155.4,150.6v159.5c-12.4-0.2-24.6-3.6-35.6-10.2l-13.2-7.9V118L155.4,150.6z"></path> <path class="st15" d="M204.2,118.1v175.7l-9.7,5.9c-12,7.3-25.6,10.8-39.1,10.5V150.6L204.2,118.1z"></path> </g> <polygon class="st16" points="132.8,186.2 132.8,324.3 87.6,297.3 87.6,186.2 110.2,171.3 "></polygon> <polygon class="st17" points="110.2,201.2 110.2,310.8 87.6,297.3 87.6,186.2 "></polygon> <polygon class="st18" points="132.8,186.2 132.8,324.3 110.2,310.8 110.2,201.2 "></polygon> <polygon class="st19" points="223.2,186.2 223.2,297.6 200.6,311.4 178,325.1 178,186.2 200.6,171.3 "></polygon> <polygon class="st20" points="200.6,201.2 200.6,311.4 178,325.1 178,186.2 "></polygon> <polygon class="st21" points="223.2,186.2 223.2,297.6 200.6,311.4 200.6,201.2 "></polygon> <path class="st22" d="M178,243.7v81.4l-4.5,2.7c-5.6,3.4-11.9,5-18.1,4.8c-5.7-0.1-11.4-1.7-16.5-4.7l-6.1-3.6v-80.6l22.6-14.9 L178,243.7z"></path> <path class="st23" d="M155.4,258.8v73.9c-5.7-0.1-11.4-1.7-16.5-4.7l-6.1-3.6v-80.6L155.4,258.8z"></path> <path class="st24" d="M178,243.7v81.4l-4.5,2.7c-5.6,3.4-11.9,5-18.1,4.8v-73.9L178,243.7z"></path> </g> </svg> 