<?xml version="1.0" encoding="UTF-8"?> <svg xmlns="http://www.w3.org/2000/svg" xmlns:xlink="http://www.w3.org/1999/xlink" version="1.1" id="Layer_1" x="0px" y="0px" viewBox="0 0 116.3 40" style="enable-background:new 0 0 116.3 40;" xml:space="preserve"> <style type="text/css"> .st0{fill:#F8B018;} .st1{fill:#6EBE53;} .st2{fill:#F37F20;} .st3{fill:#4379F4;} .st4{fill:#EE3E3C;} .st5{fill-rule:evenodd;clip-rule:evenodd;fill:#595A5C;} .st6{fill:#595A5C;} </style> <g> <path class="st0" d="M37.4,6.2c-0.2-2.7-2.5-4.8-5.2-4.7c-0.9,0.1-1.8,0.4-2.5,0.9c-0.6,0.4-1.2,1-1.5,1.7c-0.5,1-0.7,2-0.6,3.1 c0.1,0.8-0.2,1.5-0.9,2l-2.6,1.7l1.1,1.7l2.6-1.7c0.7-0.4,1.5-0.4,2.2,0c0.2,0.1,0.3,0.2,0.5,0.3c0.7,0.3,1.5,0.5,2.3,0.4 c0,0,0,0,0,0c0,0,0,0,0.1,0c0,0,0.1,0,0.1,0C35.6,11.2,37.6,8.9,37.4,6.2z"></path> <ellipse class="st1" cx="5.3" cy="24.3" rx="5" ry="5"></ellipse> <path class="st2" d="M22.9,12.5c-0.5-0.6-1.1-1.2-2-1.5c-2.3-1-5.1-0.1-6.3,2.1c-0.5,1-0.7,2-0.6,3c0.1,0.8-0.3,1.5-0.9,2l-2.6,1.7 l1.1,1.7l2.6-1.7c0.6-0.4,1.5-0.4,2.1,0c0.8,0.5,1.8,0.8,2.9,0.7c2.7-0.1,4.8-2.5,4.7-5.2C23.8,14.2,23.5,13.2,22.9,12.5z"></path> <path class="st3" d="M36.2,28c0-0.1,0.1-0.1,0.1-0.2c0,0,0,0,0,0c0-0.1,0.1-0.1,0.1-0.2c0,0,0,0,0-0.1c0,0,0.1-0.1,0.1-0.1 c0,0,0-0.1,0.1-0.1c0,0,0,0,0-0.1c0-0.1,0.1-0.1,0.1-0.2c0,0,0,0,0,0c0.3-0.6,0.5-1.3,0.6-2c0.2-2.7-1.8-5.1-4.6-5.3 c-1.1-0.1-2.1,0.2-3,0.7c-0.6,0.3-1.4,0.3-2-0.2l-2.6-1.7l-1.1,1.7l2.6,1.7c0.6,0.4,1,1.2,0.8,2c0,0.2,0,0.4,0,0.6 c-0.1,2.6,1.8,4.8,4.4,5.1C33.6,29.9,35.2,29.2,36.2,28C36.2,28,36.2,28,36.2,28z"></path> <path class="st4" d="M22.9,36.6c0,0,0.1-0.1,0.1-0.1c0,0,0-0.1,0.1-0.1c0,0,0-0.1,0-0.1c0-0.1,0.1-0.1,0.1-0.2c0,0,0,0,0,0 c0-0.1,0.1-0.1,0.1-0.2c0,0,0,0,0,0c0.3-0.7,0.5-1.4,0.5-2.2c0-0.6-0.1-1.1-0.3-1.7l0,0c0-0.1,0-0.1-0.1-0.2c0,0,0,0,0,0 c0,0,0-0.1-0.1-0.2c0,0,0-0.1,0-0.1c0,0,0-0.1-0.1-0.1c0,0,0-0.1-0.1-0.1c0,0,0,0,0-0.1c0,0-0.1-0.1-0.1-0.1c0,0,0,0,0,0 c0-0.1-0.1-0.1-0.1-0.2c0,0,0,0,0,0c-0.3-0.5-0.7-0.9-1.2-1.2c0,0,0,0-0.1,0s0,0-0.1,0c0,0-0.1-0.1-0.1-0.1c0,0,0,0,0,0 c-0.6-0.4-1.3-0.7-2.1-0.7c-0.6-0.1-1.1,0-1.7,0.1l0,0c-0.1,0-0.1,0-0.2,0.1c0,0,0,0,0,0c-0.1,0-0.1,0-0.2,0.1c0,0,0,0,0,0 c-0.1,0-0.1,0-0.2,0.1c0,0,0,0-0.1,0c0,0-0.1,0-0.1,0.1c0,0-0.1,0-0.1,0c0,0-0.1,0-0.1,0.1c0,0-0.1,0-0.1,0c0,0-0.1,0-0.1,0.1 c0,0,0,0-0.1,0c0,0,0,0,0,0c-0.7,0.4-1.5,0.4-2.1-0.1l-2.6-1.7l-1.1,1.7l2.6,1.7c0.6,0.4,1,1.2,0.9,2c0,0.1,0,0.2,0,0.4 c0,0,0,0,0,0l0,0c0,0,0,0.1,0,0.1c-0.1,2.7,1.9,5,4.6,5.2C20.3,38.8,21.9,38,22.9,36.6C22.9,36.7,22.9,36.7,22.9,36.6z"></path> </g> <path class="st5" d="M56.6,36.6h-4l-5.1-15.5h4.1l3,10.9l2.6-9.6c0.3-0.9,0.9-1.4,1.8-1.4h2.8L56.6,36.6z"></path> <path class="st5" d="M73.3,35.7c-0.8,0.5-1.6,0.7-2.5,0.8c-0.9,0.1-1.6,0.1-2.3,0.1c-1.4,0-2.5-0.3-3.5-1.1c-1-0.8-1.5-2-1.5-3.8 c0-1.6,0.5-2.8,1.4-3.5c0.9-0.7,2-1.1,3.5-1.4c0.3,0,0.4-0.1,0.7-0.1c0.3,0,0.6-0.1,0.9-0.1c1.6-0.2,2.4-0.7,2.4-1.5 c0-0.6-0.3-0.9-0.9-1.1c-0.6-0.2-1.1-0.2-1.6-0.2c-0.6,0-1,0.1-1.4,0.2c-0.5,0.1-0.7,0.5-0.9,0.9h-3.7c0.1-1.2,0.7-2.2,1.6-3 c1-0.9,2.4-1.4,4.3-1.4c2,0,3.6,0.3,4.7,1.1c1,0.8,1.6,1.8,1.6,3.3v5.3c0,1.6-0.2,2.7-0.8,3.6C74.6,34.7,73.9,35.2,73.3,35.7 L73.3,35.7z M72.3,28.5c-0.6,0.2-1.2,0.6-2.2,0.8l-1.2,0.2c-0.7,0.2-1.1,0.5-1.5,0.8c-0.2,0.5-0.3,0.9-0.3,1.3c0,0.6,0.1,1,0.5,1.4 c0.3,0.3,0.8,0.5,1.5,0.5c1,0,1.8-0.3,2.4-0.9c0.6-0.6,0.9-1.5,0.9-2.6L72.3,28.5L72.3,28.5z"></path> <path class="st5" d="M78.8,8.4h2c0.6,0,0.9,0.2,1.4,0.6c0.3,0.3,0.6,0.8,0.6,1.4v26.3h-3.9V8.4H78.8z"></path> <g> <path class="st6" d="M99.7,8.3c-7.7,0-13.9,6.2-13.9,13.9S92,36.1,99.7,36.1s13.9-6.2,13.9-13.9S107.4,8.3,99.7,8.3z M99.7,32.2 c-5.5,0-10-4.5-10-10s4.5-10,10-10c5.5,0,10,4.5,10,10S105.2,32.2,99.7,32.2z"></path> <path class="st6" d="M113.6,34.5l-1.2,1.4c-0.7,0.8-2,0.9-2.8,0.1l-8.5-7.7l1.2-1.4c0.7-0.8,2-0.9,2.8-0.1L113.6,34.5z"></path> </g> <g> <path class="st6" d="M111.6,10.7c0-0.4,0.1-0.7,0.3-1c0.2-0.3,0.4-0.6,0.8-0.8c0.3-0.2,0.7-0.3,1-0.3c0.4,0,0.7,0.1,1,0.3 c0.3,0.2,0.6,0.4,0.8,0.8c0.2,0.3,0.3,0.7,0.3,1c0,0.4-0.1,0.7-0.3,1c-0.2,0.3-0.4,0.6-0.8,0.8c-0.3,0.2-0.7,0.3-1.1,0.3 c-0.4,0-0.7-0.1-1.1-0.3s-0.6-0.4-0.8-0.8C111.7,11.4,111.6,11,111.6,10.7z M111.9,10.7c0,0.3,0.1,0.6,0.2,0.9 c0.2,0.3,0.4,0.5,0.7,0.7c0.3,0.2,0.6,0.2,0.9,0.2c0.3,0,0.6-0.1,0.9-0.2c0.3-0.2,0.5-0.4,0.7-0.7s0.2-0.6,0.2-0.9 c0-0.3-0.1-0.6-0.2-0.9c-0.2-0.3-0.4-0.5-0.7-0.7c-0.3-0.2-0.6-0.2-0.9-0.2S113,9,112.8,9.1s-0.5,0.4-0.7,0.7 C112,10.1,111.9,10.3,111.9,10.7z M114.5,10.2c0,0.1,0,0.3-0.1,0.4c-0.1,0.1-0.2,0.2-0.3,0.3l0.7,1.1h-0.5l-0.6-1h-0.4v1h-0.4V9.4 h0.7c0.3,0,0.5,0.1,0.7,0.2C114.5,9.7,114.5,9.9,114.5,10.2z M113.3,10.6h0.3c0.1,0,0.3,0,0.4-0.1c0.1-0.1,0.1-0.2,0.1-0.3 c0-0.1,0-0.2-0.1-0.3c-0.1-0.1-0.2-0.1-0.4-0.1h-0.3L113.3,10.6L113.3,10.6z"></path> </g> </svg> 